<?xml version="1.0" encoding="UTF-8"?><svg id="Layer_1" xmlns="http://www.w3.org/2000/svg" width="173.23mm" height="95.25mm" xmlns:xlink="http://www.w3.org/1999/xlink" viewBox="0 0 491.04 270"><defs><style>.cls-1{clip-path:url(#clippath);}.cls-2{stroke-width:0px;}.cls-2,.cls-3,.cls-4,.cls-5,.cls-6,.cls-7{fill:none;}.cls-8{font-family:HelveticaNeue-Bold, 'Helvetica Neue';font-size:12.74px;font-weight:700;}.cls-8,.cls-9{fill:#54565b;}.cls-9{font-size:9px;}.cls-9,.cls-10,.cls-11,.cls-12{font-family:HelveticaNeue, 'Helvetica Neue';}.cls-13{clip-path:url(#clippath-1);}.cls-3{stroke:#a01d28;}.cls-3,.cls-4,.cls-5{stroke-miterlimit:2;stroke-width:1.5px;}.cls-4{stroke:#499cc9;}.cls-5{stroke:#f9a237;}.cls-6{stroke:#444;}.cls-6,.cls-7{stroke-width:.75px;}.cls-7{stroke:#e7e2e2;}.cls-10{fill:#499cc9;}.cls-10,.cls-11,.cls-12{font-size:7.5px;}.cls-11{fill:#a01d28;}.cls-12{fill:#f9a237;}</style><clipPath id="clippath"><rect class="cls-2" x="47.23" y="74.96" width="368.81" height="138.68"/></clipPath><clipPath id="clippath-1"><rect class="cls-2" width="491" height="269.86"/></clipPath></defs><line class="cls-7" x1="47.23" y1="186.71" x2="416.04" y2="186.71"/><line class="cls-7" x1="47.23" y1="159.79" x2="416.04" y2="159.79"/><line class="cls-7" x1="47.23" y1="132.85" x2="416.04" y2="132.85"/><line class="cls-7" x1="47.23" y1="105.93" x2="416.04" y2="105.93"/><line class="cls-7" x1="47.23" y1="79" x2="416.04" y2="79"/><line class="cls-6" x1="47.23" y1="213.64" x2="416.04" y2="213.64"/><rect class="cls-2" width="491" height="269.86"/><g class="cls-1"><polyline class="cls-3" points="56 197.49 85.28 189.41 114.55 194.79 143.82 182.67 173.09 194.79 202.36 192.1 231.63 186.71 260.9 186.71 290.18 182.67 319.44 198.83 348.71 213.64 407.26 213.64"/><polyline class="cls-4" points="56 208.26 85.28 210.95 114.55 200.18 143.82 202.87 173.09 196.14 202.36 209.6 231.63 201.52 260.9 204.22 290.18 200.18 319.44 212.29 348.71 212.29 377.99 209.6 407.26 212.29"/><polyline class="cls-5" points="56 155.75 85.28 147.67 114.55 122.08 143.82 142.29 173.09 128.81 202.36 136.9 231.63 134.2 260.9 103.24 290.18 140.94 319.44 175.94 348.71 190.76 377.99 184.02 407.26 192.1"/></g><g class="cls-13"><text class="cls-9" transform="translate(46 223.39)"><tspan x="0" y="0">2</tspan></text><text class="cls-9" transform="translate(51 223.39)"><tspan x="0" y="0">0</tspan></text><text class="cls-9" transform="translate(56 223.39)"><tspan x="0" y="0">1</tspan></text><text class="cls-9" transform="translate(61.01 223.39)"><tspan x="0" y="0">0</tspan></text><text class="cls-9" transform="translate(104.55 223.39)"><tspan x="0" y="0">2</tspan></text><text class="cls-9" transform="translate(109.55 223.39)"><tspan x="0" y="0">0</tspan></text><text class="cls-9" transform="translate(114.55 223.39)"><tspan x="0" y="0">1</tspan></text><text class="cls-9" transform="translate(119.55 223.39)"><tspan x="0" y="0">2</tspan></text><text class="cls-9" transform="translate(163.08 223.39)"><tspan x="0" y="0">2</tspan></text><text class="cls-9" transform="translate(168.09 223.39)"><tspan x="0" y="0">0</tspan></text><text class="cls-9" transform="translate(173.09 223.39)"><tspan x="0" y="0">1</tspan></text><text class="cls-9" transform="translate(178.09 223.39)"><tspan x="0" y="0">4</tspan></text><text class="cls-9" transform="translate(221.63 223.39)"><tspan x="0" y="0">2</tspan></text><text class="cls-9" transform="translate(226.63 223.39)"><tspan x="0" y="0">0</tspan></text><text class="cls-9" transform="translate(231.63 223.39)"><tspan x="0" y="0">1</tspan></text><text class="cls-9" transform="translate(236.63 223.39)"><tspan x="0" y="0">6</tspan></text><text class="cls-9" transform="translate(280.17 223.39)"><tspan x="0" y="0">2</tspan></text><text class="cls-9" transform="translate(285.18 223.39)"><tspan x="0" y="0">0</tspan></text><text class="cls-9" transform="translate(290.18 223.39)"><tspan x="0" y="0">1</tspan></text><text class="cls-9" transform="translate(295.18 223.39)"><tspan x="0" y="0">8</tspan></text><text class="cls-9" transform="translate(338.71 223.39)"><tspan x="0" y="0">2</tspan></text><text class="cls-9" transform="translate(343.71 223.39)"><tspan x="0" y="0">0</tspan></text><text class="cls-9" transform="translate(348.71 223.39)"><tspan x="0" y="0">2</tspan></text><text class="cls-9" transform="translate(353.72 223.39)"><tspan x="0" y="0">0</tspan></text><text class="cls-9" transform="translate(397.26 223.39)"><tspan x="0" y="0">2</tspan></text><text class="cls-9" transform="translate(402.26 223.39)"><tspan x="0" y="0">0</tspan></text><text class="cls-9" transform="translate(407.26 223.39)"><tspan x="0" y="0">2</tspan></text><text class="cls-9" transform="translate(412.26 223.39)"><tspan x="0" y="0">2</tspan></text><text class="cls-9" transform="translate(41.48 216.79)"><tspan x="0" y="0">0</tspan></text><text class="cls-9" transform="translate(36.47 189.86)"><tspan x="0" y="0">2</tspan></text><text class="cls-9" transform="translate(41.48 189.86)"><tspan x="0" y="0">0</tspan></text><text class="cls-9" transform="translate(36.47 162.94)"><tspan x="0" y="0">4</tspan></text><text class="cls-9" transform="translate(41.48 162.94)"><tspan x="0" y="0">0</tspan></text><text class="cls-9" transform="translate(36.47 136)"><tspan x="0" y="0">6</tspan></text><text class="cls-9" transform="translate(41.48 136)"><tspan x="0" y="0">0</tspan></text><text class="cls-9" transform="translate(36.47 109.08)"><tspan x="0" y="0">8</tspan></text><text class="cls-9" transform="translate(41.48 109.08)"><tspan x="0" y="0">0</tspan></text><text class="cls-9" transform="translate(31.47 82.15)"><tspan x="0" y="0">1</tspan></text><text class="cls-9" transform="translate(36.47 82.15)"><tspan x="0" y="0">0</tspan></text><text class="cls-9" transform="translate(41.48 82.15)"><tspan x="0" y="0">0</tspan></text><text class="cls-8" transform="translate(106.93 16.19)"><tspan x="0" y="0">U</tspan></text><text class="cls-8" transform="translate(116.38 16.19)"><tspan x="0" y="0">s</tspan></text><text class="cls-8" transform="translate(123.22 16.19)"><tspan x="0" y="0">e</tspan></text><text class="cls-8" transform="translate(130.53 16.19)"><tspan x="0" y="0"> </tspan></text><text class="cls-8" transform="translate(134.08 16.19)"><tspan x="0" y="0">o</tspan></text><text class="cls-8" transform="translate(141.86 16.19)"><tspan x="0" y="0">f</tspan></text><text class="cls-8" transform="translate(146.11 16.19)"><tspan x="0" y="0"> </tspan></text><text class="cls-8" transform="translate(149.65 16.19)"><tspan x="0" y="0">i</tspan></text><text class="cls-8" transform="translate(152.94 16.19)"><tspan x="0" y="0">m</tspan></text><text class="cls-8" transform="translate(164.48 16.19)"><tspan x="0" y="0">m</tspan></text><text class="cls-8" transform="translate(176.03 16.19)"><tspan x="0" y="0">e</tspan></text><text class="cls-8" transform="translate(183.34 16.19)"><tspan x="0" y="0">d</tspan></text><text class="cls-8" transform="translate(191.13 16.19)"><tspan x="0" y="0">i</tspan></text><text class="cls-8" transform="translate(194.42 16.19)"><tspan x="0" y="0">a</tspan></text><text class="cls-8" transform="translate(201.73 16.19)"><tspan x="0" y="0">t</tspan></text><text class="cls-8" transform="translate(206.22 16.19)"><tspan x="0" y="0">e</tspan></text><text class="cls-8" transform="translate(213.53 16.19)"><tspan x="0" y="0"> </tspan></text><text class="cls-8" transform="translate(217.08 16.19)"><tspan x="0" y="0">i</tspan></text><text class="cls-8" transform="translate(220.36 16.19)"><tspan x="0" y="0">m</tspan></text><text class="cls-8" transform="translate(231.91 16.19)"><tspan x="0" y="0">p</tspan></text><text class="cls-8" transform="translate(239.7 16.19)"><tspan x="0" y="0">r</tspan></text><text class="cls-8" transform="translate(244.65 16.19)"><tspan x="0" y="0">i</tspan></text><text class="cls-8" transform="translate(247.94 16.19)"><tspan x="0" y="0">s</tspan></text><text class="cls-8" transform="translate(254.78 16.19)"><tspan x="0" y="0">o</tspan></text><text class="cls-8" transform="translate(262.57 16.19)"><tspan x="0" y="0">n</tspan></text><text class="cls-8" transform="translate(270.13 16.19)"><tspan x="0" y="0">m</tspan></text><text class="cls-8" transform="translate(281.67 16.19)"><tspan x="0" y="0">e</tspan></text><text class="cls-8" transform="translate(288.99 16.19)"><tspan x="0" y="0">n</tspan></text><text class="cls-8" transform="translate(296.54 16.19)"><tspan x="0" y="0">t</tspan></text><text class="cls-8" transform="translate(301.03 16.19)"><tspan x="0" y="0"> </tspan></text><text class="cls-8" transform="translate(304.57 16.19)"><tspan x="0" y="0">f</tspan></text><text class="cls-8" transform="translate(308.82 16.19)"><tspan x="0" y="0">o</tspan></text><text class="cls-8" transform="translate(316.6 16.19)"><tspan x="0" y="0">r</tspan></text><text class="cls-8" transform="translate(321.56 16.19)"><tspan x="0" y="0"> </tspan></text><text class="cls-8" transform="translate(325.1 16.19)"><tspan x="0" y="0">w</tspan></text><text class="cls-8" transform="translate(335.48 16.19)"><tspan x="0" y="0">o</tspan></text><text class="cls-8" transform="translate(343.26 16.19)"><tspan x="0" y="0">m</tspan></text><text class="cls-8" transform="translate(354.81 16.19)"><tspan x="0" y="0">e</tspan></text><text class="cls-8" transform="translate(362.12 16.19)"><tspan x="0" y="0">n</tspan></text><text class="cls-8" transform="translate(369.68 16.19)"><tspan x="0" y="0"> </tspan></text><text class="cls-8" transform="translate(373.22 16.19)"><tspan x="0" y="0">i</tspan></text><text class="cls-8" transform="translate(376.51 16.19)"><tspan x="0" y="0">n</tspan></text><text class="cls-8" transform="translate(192.5 32.76)"><tspan x="0" y="0">G</tspan></text><text class="cls-8" transform="translate(202.17 32.76)"><tspan x="0" y="0">w</tspan></text><text class="cls-8" transform="translate(212.55 32.76)"><tspan x="0" y="0">e</tspan></text><text class="cls-8" transform="translate(219.86 32.76)"><tspan x="0" y="0">n</tspan></text><text class="cls-8" transform="translate(227.42 32.76)"><tspan x="0" y="0">t</tspan></text><text class="cls-8" transform="translate(231.9 32.76)"><tspan x="0" y="0"> </tspan></text><text class="cls-8" transform="translate(235.45 32.76)"><tspan x="0" y="0">2</tspan></text><text class="cls-8" transform="translate(242.53 32.76)"><tspan x="0" y="0">0</tspan></text><text class="cls-8" transform="translate(249.62 32.76)"><tspan x="0" y="0">1</tspan></text><text class="cls-8" transform="translate(256.7 32.76)"><tspan x="0" y="0">0</tspan></text><text class="cls-8" transform="translate(263.79 32.76)"><tspan x="0" y="0">–2</tspan></text><text class="cls-8" transform="translate(277.24 32.76)"><tspan x="0" y="0">0</tspan></text><text class="cls-8" transform="translate(284.33 32.76)"><tspan x="0" y="0">2</tspan></text><text class="cls-8" transform="translate(291.42 32.76)"><tspan x="0" y="0">2</tspan></text><text class="cls-11" transform="translate(408.54 187.03)"><tspan x="0" y="0">1</tspan></text><text class="cls-11" transform="translate(412.71 187.03)"><tspan x="0" y="0">2</tspan></text><text class="cls-11" transform="translate(416.88 187.03)"><tspan x="0" y="0"> </tspan></text><text class="cls-11" transform="translate(418.96 187.03)"><tspan x="0" y="0">m</tspan></text><text class="cls-11" transform="translate(425.36 187.03)"><tspan x="0" y="0">o</tspan></text><text class="cls-11" transform="translate(429.66 187.03)"><tspan x="0" y="0">n</tspan></text><text class="cls-11" transform="translate(433.83 187.03)"><tspan x="0" y="0">t</tspan></text><text class="cls-11" transform="translate(436.19 187.03)"><tspan x="0" y="0">h</tspan></text><text class="cls-11" transform="translate(440.36 187.03)"><tspan x="0" y="0">s </tspan></text><text class="cls-11" transform="translate(446.19 187.03)"><tspan x="0" y="0">o</tspan></text><text class="cls-11" transform="translate(450.49 187.03)"><tspan x="0" y="0">r</tspan></text><text class="cls-11" transform="translate(452.99 187.03)"><tspan x="0" y="0"> </tspan></text><text class="cls-11" transform="translate(455.07 187.03)"><tspan x="0" y="0">m</tspan></text><text class="cls-11" transform="translate(461.46 187.03)"><tspan x="0" y="0">o</tspan></text><text class="cls-11" transform="translate(465.77 187.03)"><tspan x="0" y="0">r</tspan></text><text class="cls-11" transform="translate(468.13 187.03)"><tspan x="0" y="0">e</tspan></text><text class="cls-10" transform="translate(408.54 200.52)"><tspan x="0" y="0">6</tspan></text><text class="cls-10" transform="translate(412.71 200.52)"><tspan x="0" y="0"> </tspan></text><text class="cls-10" transform="translate(414.79 200.52)"><tspan x="0" y="0">m</tspan></text><text class="cls-10" transform="translate(421.19 200.52)"><tspan x="0" y="0">o</tspan></text><text class="cls-10" transform="translate(425.49 200.52)"><tspan x="0" y="0">n</tspan></text><text class="cls-10" transform="translate(429.66 200.52)"><tspan x="0" y="0">t</tspan></text><text class="cls-10" transform="translate(432.02 200.52)"><tspan x="0" y="0">h</tspan></text><text class="cls-10" transform="translate(436.19 200.52)"><tspan x="0" y="0">s—</tspan></text><text class="cls-10" transform="translate(408.54 210.27)"><tspan x="0" y="0">l</tspan></text><text class="cls-10" transform="translate(410.21 210.27)"><tspan x="0" y="0">e</tspan></text><text class="cls-10" transform="translate(414.23 210.27)"><tspan x="0" y="0">ss </tspan></text><text class="cls-10" transform="translate(423.81 210.27)"><tspan x="0" y="0">t</tspan></text><text class="cls-10" transform="translate(426.17 210.27)"><tspan x="0" y="0">h</tspan></text><text class="cls-10" transform="translate(430.34 210.27)"><tspan x="0" y="0">a</tspan></text><text class="cls-10" transform="translate(434.37 210.27)"><tspan x="0" y="0">n</tspan></text><text class="cls-10" transform="translate(438.53 210.27)"><tspan x="0" y="0"> </tspan></text><text class="cls-10" transform="translate(440.62 210.27)"><tspan x="0" y="0">1</tspan></text><text class="cls-10" transform="translate(444.79 210.27)"><tspan x="0" y="0">2</tspan></text><text class="cls-10" transform="translate(448.95 210.27)"><tspan x="0" y="0"> </tspan></text><text class="cls-10" transform="translate(451.04 210.27)"><tspan x="0" y="0">m</tspan></text><text class="cls-10" transform="translate(457.43 210.27)"><tspan x="0" y="0">o</tspan></text><text class="cls-10" transform="translate(461.73 210.27)"><tspan x="0" y="0">n</tspan></text><text class="cls-10" transform="translate(465.9 210.27)"><tspan x="0" y="0">t</tspan></text><text class="cls-10" transform="translate(468.26 210.27)"><tspan x="0" y="0">h</tspan></text><text class="cls-10" transform="translate(472.43 210.27)"><tspan x="0" y="0">s</tspan></text><text class="cls-12" transform="translate(408.54 172.79)"><tspan x="0" y="0">L</tspan></text><text class="cls-12" transform="translate(412.71 172.79)"><tspan x="0" y="0">e</tspan></text><text class="cls-12" transform="translate(416.74 172.79)"><tspan x="0" y="0">ss </tspan></text><text class="cls-12" transform="translate(426.32 172.79)"><tspan x="0" y="0">t</tspan></text><text class="cls-12" transform="translate(428.68 172.79)"><tspan x="0" y="0">h</tspan></text><text class="cls-12" transform="translate(432.84 172.79)"><tspan x="0" y="0">a</tspan></text><text class="cls-12" transform="translate(436.87 172.79)"><tspan x="0" y="0">n</tspan></text><text class="cls-12" transform="translate(441.04 172.79)"><tspan x="0" y="0"> </tspan></text><text class="cls-12" transform="translate(443.12 172.79)"><tspan x="0" y="0">6</tspan></text><text class="cls-12" transform="translate(447.29 172.79)"><tspan x="0" y="0"> </tspan></text><text class="cls-12" transform="translate(449.37 172.79)"><tspan x="0" y="0">m</tspan></text><text class="cls-12" transform="translate(455.77 172.79)"><tspan x="0" y="0">o</tspan></text><text class="cls-12" transform="translate(460.07 172.79)"><tspan x="0" y="0">n</tspan></text><text class="cls-12" transform="translate(464.24 172.79)"><tspan x="0" y="0">t</tspan></text><text class="cls-12" transform="translate(466.6 172.79)"><tspan x="0" y="0">h</tspan></text><text class="cls-12" transform="translate(470.77 172.79)"><tspan x="0" y="0">s</tspan></text><text class="cls-9" transform="translate(19.5 250)"><tspan x="0" y="0">S</tspan></text><text class="cls-9" transform="translate(25.33 250)"><tspan x="0" y="0">o</tspan></text><text class="cls-9" transform="translate(30.49 250)"><tspan x="0" y="0">u</tspan></text><text class="cls-9" transform="translate(35.49 250)"><tspan x="0" y="0">r</tspan></text><text class="cls-9" transform="translate(38.33 250)"><tspan x="0" y="0">c</tspan></text><text class="cls-9" transform="translate(43.16 250)"><tspan x="0" y="0">e</tspan></text><text class="cls-9" transform="translate(47.99 250)"><tspan x="0" y="0">:</tspan></text><text class="cls-9" transform="translate(50.49 250)"><tspan x="0" y="0"> </tspan></text><text class="cls-9" transform="translate(52.99 250)"><tspan x="0" y="0">M</tspan></text><text class="cls-9" transform="translate(60.82 250)"><tspan x="0" y="0">i</tspan></text><text class="cls-9" transform="translate(62.82 250)"><tspan x="0" y="0">n</tspan></text><text class="cls-9" transform="translate(67.82 250)"><tspan x="0" y="0">i</tspan></text><text class="cls-9" transform="translate(69.82 250)"><tspan x="0" y="0">st</tspan></text><text class="cls-9" transform="translate(77.15 250)"><tspan x="0" y="0">r</tspan></text><text class="cls-9" transform="translate(80.15 250)"><tspan x="0" y="0">y </tspan></text><text class="cls-9" transform="translate(87.14 250)"><tspan x="0" y="0">o</tspan></text><text class="cls-9" transform="translate(92.31 250)"><tspan x="0" y="0">f</tspan></text><text class="cls-9" transform="translate(94.97 250)"><tspan x="0" y="0"> </tspan></text><text class="cls-9" transform="translate(97.47 250)"><tspan x="0" y="0">J</tspan></text><text class="cls-9" transform="translate(102.14 250)"><tspan x="0" y="0">u</tspan></text><text class="cls-9" transform="translate(107.14 250)"><tspan x="0" y="0">st</tspan></text><text class="cls-9" transform="translate(114.47 250)"><tspan x="0" y="0">i</tspan></text><text class="cls-9" transform="translate(116.47 250)"><tspan x="0" y="0">c</tspan></text><text class="cls-9" transform="translate(121.3 250)"><tspan x="0" y="0">e</tspan></text><text class="cls-9" transform="translate(126.13 250)"><tspan x="0" y="0">,</tspan></text><text class="cls-9" transform="translate(128.63 250)"><tspan x="0" y="0"> </tspan></text><text class="cls-9" transform="translate(131.13 250)"><tspan x="0" y="0">C</tspan></text><text class="cls-9" transform="translate(137.63 250)"><tspan x="0" y="0">r</tspan></text><text class="cls-9" transform="translate(140.62 250)"><tspan x="0" y="0">i</tspan></text><text class="cls-9" transform="translate(142.62 250)"><tspan x="0" y="0">m</tspan></text><text class="cls-9" transform="translate(150.29 250)"><tspan x="0" y="0">i</tspan></text><text class="cls-9" transform="translate(152.29 250)"><tspan x="0" y="0">n</tspan></text><text class="cls-9" transform="translate(157.29 250)"><tspan x="0" y="0">a</tspan></text><text class="cls-9" transform="translate(162.12 250)"><tspan x="0" y="0">l</tspan></text><text class="cls-9" transform="translate(164.12 250)"><tspan x="0" y="0"> </tspan></text><text class="cls-9" transform="translate(166.62 250)"><tspan x="0" y="0">j</tspan></text><text class="cls-9" transform="translate(168.62 250)"><tspan x="0" y="0">u</tspan></text><text class="cls-9" transform="translate(173.62 250)"><tspan x="0" y="0">st</tspan></text><text class="cls-9" transform="translate(180.95 250)"><tspan x="0" y="0">i</tspan></text><text class="cls-9" transform="translate(182.95 250)"><tspan x="0" y="0">c</tspan></text><text class="cls-9" transform="translate(187.78 250)"><tspan x="0" y="0">e</tspan></text><text class="cls-9" transform="translate(192.61 250)"><tspan x="0" y="0"> </tspan></text><text class="cls-9" transform="translate(195.11 250)"><tspan x="0" y="0">st</tspan></text><text class="cls-9" transform="translate(202.44 250)"><tspan x="0" y="0">a</tspan></text><text class="cls-9" transform="translate(207.27 250)"><tspan x="0" y="0">t</tspan></text><text class="cls-9" transform="translate(210.1 250)"><tspan x="0" y="0">i</tspan></text><text class="cls-9" transform="translate(212.1 250)"><tspan x="0" y="0">st</tspan></text><text class="cls-9" transform="translate(219.43 250)"><tspan x="0" y="0">i</tspan></text><text class="cls-9" transform="translate(221.43 250)"><tspan x="0" y="0">c</tspan></text><text class="cls-9" transform="translate(226.26 250)"><tspan x="0" y="0">s</tspan></text><text class="cls-9" transform="translate(57.72 79.83)"><tspan x="0" y="0">W</tspan></text><text class="cls-9" transform="translate(65.54 79.83)"><tspan x="0" y="0">o</tspan></text><text class="cls-9" transform="translate(70.7 79.83)"><tspan x="0" y="0">m</tspan></text><text class="cls-9" transform="translate(78.37 79.83)"><tspan x="0" y="0">e</tspan></text><text class="cls-9" transform="translate(83.2 79.83)"><tspan x="0" y="0">n</tspan></text><text class="cls-9" transform="translate(88.21 79.83)"><tspan x="0" y="0"> </tspan></text><text class="cls-9" transform="translate(90.71 79.83)"><tspan x="0" y="0">se</tspan></text><text class="cls-9" transform="translate(100.03 79.83)"><tspan x="0" y="0">n</tspan></text><text class="cls-9" transform="translate(105.04 79.83)"><tspan x="0" y="0">t</tspan></text><text class="cls-9" transform="translate(107.87 79.83)"><tspan x="0" y="0">e</tspan></text><text class="cls-9" transform="translate(112.7 79.83)"><tspan x="0" y="0">n</tspan></text><text class="cls-9" transform="translate(117.7 79.83)"><tspan x="0" y="0">c</tspan></text><text class="cls-9" transform="translate(122.53 79.83)"><tspan x="0" y="0">e</tspan></text><text class="cls-9" transform="translate(127.36 79.83)"><tspan x="0" y="0">d</tspan></text><text class="cls-9" transform="translate(132.7 79.83)"><tspan x="0" y="0"> </tspan></text><text class="cls-9" transform="translate(135.2 79.83)"><tspan x="0" y="0">t</tspan></text><text class="cls-9" transform="translate(138.03 79.83)"><tspan x="0" y="0">o</tspan></text><text class="cls-9" transform="translate(143.19 79.83)"><tspan x="0" y="0"> </tspan></text><text class="cls-9" transform="translate(145.7 79.83)"><tspan x="0" y="0">c</tspan></text><text class="cls-9" transform="translate(150.53 79.83)"><tspan x="0" y="0">u</tspan></text><text class="cls-9" transform="translate(155.53 79.83)"><tspan x="0" y="0">st</tspan></text><text class="cls-9" transform="translate(162.86 79.83)"><tspan x="0" y="0">o</tspan></text><text class="cls-9" transform="translate(168.02 79.83)"><tspan x="0" y="0">d</tspan></text><text class="cls-9" transform="translate(173.36 79.83)"><tspan x="0" y="0">y</tspan></text></g></svg>