<?xml version="1.0" encoding="UTF-8"?><svg id="Layer_1" xmlns="http://www.w3.org/2000/svg" width="173.23mm" height="95.25mm" xmlns:xlink="http://www.w3.org/1999/xlink" viewBox="0 0 491.04 270"><defs><style>.cls-1{font-size:10.49px;}.cls-1,.cls-2,.cls-3{fill:#54565b;}.cls-1,.cls-2,.cls-4,.cls-5{font-family:HelveticaNeue, 'Helvetica Neue';}.cls-6{clip-path:url(#clippath);}.cls-7{stroke-width:0px;}.cls-7,.cls-8,.cls-9,.cls-10,.cls-11,.cls-12{fill:none;}.cls-8{opacity:.15;}.cls-8,.cls-11{stroke:#54565b;}.cls-8,.cls-11,.cls-12{stroke-width:.75px;}.cls-2{font-size:9px;}.cls-13{clip-path:url(#clippath-1);}.cls-14{clip-path:url(#clippath-2);}.cls-3{font-family:HelveticaNeue-Bold, 'Helvetica Neue';font-size:14.99px;font-weight:700;}.cls-9{stroke:#a01d28;}.cls-9,.cls-10{stroke-miterlimit:2;stroke-width:3px;}.cls-10{stroke:#499cc9;}.cls-12{stroke:#444;}.cls-4{fill:#499cc9;}.cls-4,.cls-5{font-size:7.5px;}.cls-5{fill:#a01d28;}</style><clipPath id="clippath"><rect class="cls-7" width="491" height="269.86"/></clipPath><clipPath id="clippath-1"><rect class="cls-7" x="29.98" y="59.97" width="386.05" height="157.42"/></clipPath><clipPath id="clippath-2"><rect class="cls-7" width="491" height="269.86"/></clipPath></defs><g class="cls-6"><line class="cls-8" x1="29.98" y1="186.22" x2="416.04" y2="186.22"/><line class="cls-8" x1="29.98" y1="155.04" x2="416.04" y2="155.04"/><line class="cls-8" x1="29.98" y1="123.87" x2="416.04" y2="123.87"/><line class="cls-8" x1="29.98" y1="92.7" x2="416.04" y2="92.7"/><line class="cls-8" x1="29.98" y1="61.53" x2="416.04" y2="61.53"/><line class="cls-12" x1="29.98" y1="217.39" x2="416.04" y2="217.39"/></g><g class="cls-13"><polyline class="cls-9" points="37.92 153.48 64.36 150.37 90.8 116.08 117.24 137.9 143.69 131.66 170.13 139.46 196.57 134.78 223.01 106.73 249.45 136.34 275.9 175.31 302.34 190.89 328.78 184.66 355.22 192.45 381.66 172.19 408.11 137.9"/><polyline class="cls-10" points="117.24 215.83 170.13 215.83 196.57 214.27 249.45 211.15 302.34 215.83 328.78 212.71 355.22 215.83 381.66 214.27 408.11 215.83"/></g><g class="cls-14"><line class="cls-11" x1="37.92" y1="218.14" x2="37.92" y2="221.89"/><line class="cls-11" x1="90.8" y1="218.14" x2="90.8" y2="221.89"/><line class="cls-11" x1="143.69" y1="218.14" x2="143.69" y2="221.89"/><line class="cls-11" x1="196.57" y1="218.14" x2="196.57" y2="221.89"/><line class="cls-11" x1="249.45" y1="218.14" x2="249.45" y2="221.89"/><line class="cls-11" x1="302.34" y1="218.14" x2="302.34" y2="221.89"/><line class="cls-11" x1="355.22" y1="218.14" x2="355.22" y2="221.89"/><line class="cls-11" x1="408.11" y1="218.14" x2="408.11" y2="221.89"/><text class="cls-1" transform="translate(26.25 234.48)"><tspan x="0" y="0">2</tspan></text><text class="cls-1" transform="translate(32.08 234.48)"><tspan x="0" y="0">0</tspan></text><text class="cls-1" transform="translate(37.92 234.48)"><tspan x="0" y="0">1</tspan></text><text class="cls-1" transform="translate(43.75 234.48)"><tspan x="0" y="0">0</tspan></text><text class="cls-1" transform="translate(79.13 234.48)"><tspan x="0" y="0">2</tspan></text><text class="cls-1" transform="translate(84.97 234.48)"><tspan x="0" y="0">0</tspan></text><text class="cls-1" transform="translate(90.8 234.48)"><tspan x="0" y="0">1</tspan></text><text class="cls-1" transform="translate(96.64 234.48)"><tspan x="0" y="0">2</tspan></text><text class="cls-1" transform="translate(132.02 234.48)"><tspan x="0" y="0">2</tspan></text><text class="cls-1" transform="translate(137.85 234.48)"><tspan x="0" y="0">0</tspan></text><text class="cls-1" transform="translate(143.69 234.48)"><tspan x="0" y="0">1</tspan></text><text class="cls-1" transform="translate(149.52 234.48)"><tspan x="0" y="0">4</tspan></text><text class="cls-1" transform="translate(184.9 234.48)"><tspan x="0" y="0">2</tspan></text><text class="cls-1" transform="translate(190.74 234.48)"><tspan x="0" y="0">0</tspan></text><text class="cls-1" transform="translate(196.57 234.48)"><tspan x="0" y="0">1</tspan></text><text class="cls-1" transform="translate(202.41 234.48)"><tspan x="0" y="0">6</tspan></text><text class="cls-1" transform="translate(237.78 234.48)"><tspan x="0" y="0">2</tspan></text><text class="cls-1" transform="translate(243.62 234.48)"><tspan x="0" y="0">0</tspan></text><text class="cls-1" transform="translate(249.45 234.48)"><tspan x="0" y="0">1</tspan></text><text class="cls-1" transform="translate(255.29 234.48)"><tspan x="0" y="0">8</tspan></text><text class="cls-1" transform="translate(290.67 234.48)"><tspan x="0" y="0">2</tspan></text><text class="cls-1" transform="translate(296.5 234.48)"><tspan x="0" y="0">0</tspan></text><text class="cls-1" transform="translate(302.34 234.48)"><tspan x="0" y="0">2</tspan></text><text class="cls-1" transform="translate(308.17 234.48)"><tspan x="0" y="0">0</tspan></text><text class="cls-1" transform="translate(343.55 234.48)"><tspan x="0" y="0">2</tspan></text><text class="cls-1" transform="translate(349.39 234.48)"><tspan x="0" y="0">0</tspan></text><text class="cls-1" transform="translate(355.22 234.48)"><tspan x="0" y="0">2</tspan></text><text class="cls-1" transform="translate(361.06 234.48)"><tspan x="0" y="0">2</tspan></text><text class="cls-1" transform="translate(396.44 234.48)"><tspan x="0" y="0">2</tspan></text><text class="cls-1" transform="translate(402.27 234.48)"><tspan x="0" y="0">0</tspan></text><text class="cls-1" transform="translate(408.11 234.48)"><tspan x="0" y="0">2</tspan></text><text class="cls-1" transform="translate(413.94 234.48)"><tspan x="0" y="0">4</tspan></text><text class="cls-1" transform="translate(23.4 221.06)"><tspan x="0" y="0">0</tspan></text><text class="cls-1" transform="translate(17.57 189.89)"><tspan x="0" y="0">2</tspan></text><text class="cls-1" transform="translate(23.4 189.89)"><tspan x="0" y="0">0</tspan></text><text class="cls-1" transform="translate(17.57 158.72)"><tspan x="0" y="0">4</tspan></text><text class="cls-1" transform="translate(23.4 158.72)"><tspan x="0" y="0">0</tspan></text><text class="cls-1" transform="translate(17.57 127.55)"><tspan x="0" y="0">6</tspan></text><text class="cls-1" transform="translate(23.4 127.55)"><tspan x="0" y="0">0</tspan></text><text class="cls-1" transform="translate(17.57 96.37)"><tspan x="0" y="0">8</tspan></text><text class="cls-1" transform="translate(23.4 96.37)"><tspan x="0" y="0">0</tspan></text><text class="cls-1" transform="translate(11.73 65.2)"><tspan x="0" y="0">1</tspan></text><text class="cls-1" transform="translate(17.57 65.2)"><tspan x="0" y="0">0</tspan></text><text class="cls-1" transform="translate(23.4 65.2)"><tspan x="0" y="0">0</tspan></text><text class="cls-3" transform="translate(12.28 16.19)"><tspan x="0" y="0">U</tspan></text><text class="cls-3" transform="translate(23.38 16.19)"><tspan x="0" y="0">s</tspan></text><text class="cls-3" transform="translate(31.44 16.19)"><tspan x="0" y="0">e</tspan></text><text class="cls-3" transform="translate(40.04 16.19)"><tspan x="0" y="0"> </tspan></text><text class="cls-3" transform="translate(44.21 16.19)"><tspan x="0" y="0">o</tspan></text><text class="cls-3" transform="translate(53.37 16.19)"><tspan x="0" y="0">f</tspan></text><text class="cls-3" transform="translate(58.36 16.19)"><tspan x="0" y="0"> </tspan></text><text class="cls-3" transform="translate(62.53 16.19)"><tspan x="0" y="0">i</tspan></text><text class="cls-3" transform="translate(66.4 16.19)"><tspan x="0" y="0">m</tspan></text><text class="cls-3" transform="translate(79.98 16.19)"><tspan x="0" y="0">m</tspan></text><text class="cls-3" transform="translate(93.56 16.19)"><tspan x="0" y="0">e</tspan></text><text class="cls-3" transform="translate(102.17 16.19)"><tspan x="0" y="0">d</tspan></text><text class="cls-3" transform="translate(111.33 16.19)"><tspan x="0" y="0">i</tspan></text><text class="cls-3" transform="translate(115.2 16.19)"><tspan x="0" y="0">a</tspan></text><text class="cls-3" transform="translate(123.8 16.19)"><tspan x="0" y="0">t</tspan></text><text class="cls-3" transform="translate(129.08 16.19)"><tspan x="0" y="0">e</tspan></text><text class="cls-3" transform="translate(137.69 16.19)"><tspan x="0" y="0"> </tspan></text><text class="cls-3" transform="translate(141.85 16.19)"><tspan x="0" y="0">i</tspan></text><text class="cls-3" transform="translate(145.72 16.19)"><tspan x="0" y="0">m</tspan></text><text class="cls-3" transform="translate(159.31 16.19)"><tspan x="0" y="0">p</tspan></text><text class="cls-3" transform="translate(168.47 16.19)"><tspan x="0" y="0">r</tspan></text><text class="cls-3" transform="translate(174.3 16.19)"><tspan x="0" y="0">i</tspan></text><text class="cls-3" transform="translate(178.17 16.19)"><tspan x="0" y="0">s</tspan></text><text class="cls-3" transform="translate(186.22 16.19)"><tspan x="0" y="0">o</tspan></text><text class="cls-3" transform="translate(195.38 16.19)"><tspan x="0" y="0">n</tspan></text><text class="cls-3" transform="translate(204.27 16.19)"><tspan x="0" y="0">m</tspan></text><text class="cls-3" transform="translate(217.85 16.19)"><tspan x="0" y="0">e</tspan></text><text class="cls-3" transform="translate(226.46 16.19)"><tspan x="0" y="0">n</tspan></text><text class="cls-3" transform="translate(235.35 16.19)"><tspan x="0" y="0">t</tspan></text><text class="cls-3" transform="translate(240.62 16.19)"><tspan x="0" y="0"> </tspan></text><text class="cls-3" transform="translate(244.79 16.19)"><tspan x="0" y="0">f</tspan></text><text class="cls-3" transform="translate(249.78 16.19)"><tspan x="0" y="0">o</tspan></text><text class="cls-3" transform="translate(258.94 16.19)"><tspan x="0" y="0">r</tspan></text><text class="cls-3" transform="translate(264.78 16.19)"><tspan x="0" y="0"> </tspan></text><text class="cls-3" transform="translate(268.94 16.19)"><tspan x="0" y="0">wo</tspan></text><text class="cls-3" transform="translate(290.31 16.19)"><tspan x="0" y="0">m</tspan></text><text class="cls-3" transform="translate(303.89 16.19)"><tspan x="0" y="0">e</tspan></text><text class="cls-3" transform="translate(312.5 16.19)"><tspan x="0" y="0">n</tspan></text><text class="cls-3" transform="translate(12.28 35.68)"><tspan x="0" y="0">G</tspan></text><text class="cls-3" transform="translate(23.65 35.68)"><tspan x="0" y="0">we</tspan></text><text class="cls-3" transform="translate(44.46 35.68)"><tspan x="0" y="0">n</tspan></text><text class="cls-3" transform="translate(53.35 35.68)"><tspan x="0" y="0">t</tspan></text><text class="cls-3" transform="translate(58.63 35.68)"><tspan x="0" y="0">,</tspan></text><text class="cls-3" transform="translate(62.8 35.68)"><tspan x="0" y="0"> </tspan></text><text class="cls-3" transform="translate(66.97 35.68)"><tspan x="0" y="0">2</tspan></text><text class="cls-3" transform="translate(75.3 35.68)"><tspan x="0" y="0">0</tspan></text><text class="cls-3" transform="translate(83.64 35.68)"><tspan x="0" y="0">1</tspan></text><text class="cls-3" transform="translate(91.97 35.68)"><tspan x="0" y="0">0</tspan></text><text class="cls-3" transform="translate(100.31 35.68)"><tspan x="0" y="0">—2</tspan></text><text class="cls-3" transform="translate(123.64 35.68)"><tspan x="0" y="0">0</tspan></text><text class="cls-3" transform="translate(131.97 35.68)"><tspan x="0" y="0">2</tspan></text><text class="cls-3" transform="translate(140.31 35.68)"><tspan x="0" y="0">4</tspan></text><text class="cls-5" transform="translate(409.29 134.56)"><tspan x="0" y="0">L</tspan></text><text class="cls-5" transform="translate(413.46 134.56)"><tspan x="0" y="0">e</tspan></text><text class="cls-5" transform="translate(417.49 134.56)"><tspan x="0" y="0">ss </tspan></text><text class="cls-5" transform="translate(427.07 134.56)"><tspan x="0" y="0">t</tspan></text><text class="cls-5" transform="translate(429.43 134.56)"><tspan x="0" y="0">h</tspan></text><text class="cls-5" transform="translate(433.59 134.56)"><tspan x="0" y="0">a</tspan></text><text class="cls-5" transform="translate(437.62 134.56)"><tspan x="0" y="0">n</tspan></text><text class="cls-5" transform="translate(441.79 134.56)"><tspan x="0" y="0"> </tspan></text><text class="cls-5" transform="translate(443.87 134.56)"><tspan x="0" y="0">6</tspan></text><text class="cls-5" transform="translate(448.04 134.56)"><tspan x="0" y="0"> </tspan></text><text class="cls-5" transform="translate(450.12 134.56)"><tspan x="0" y="0">m</tspan></text><text class="cls-5" transform="translate(456.52 134.56)"><tspan x="0" y="0">o</tspan></text><text class="cls-5" transform="translate(460.82 134.56)"><tspan x="0" y="0">n</tspan></text><text class="cls-5" transform="translate(464.99 134.56)"><tspan x="0" y="0">t</tspan></text><text class="cls-5" transform="translate(467.35 134.56)"><tspan x="0" y="0">h</tspan></text><text class="cls-5" transform="translate(471.52 134.56)"><tspan x="0" y="0">s</tspan></text><text class="cls-4" transform="translate(409.29 204.27)"><tspan x="0" y="0">6</tspan></text><text class="cls-4" transform="translate(413.46 204.27)"><tspan x="0" y="0"> </tspan></text><text class="cls-4" transform="translate(415.54 204.27)"><tspan x="0" y="0">m</tspan></text><text class="cls-4" transform="translate(421.94 204.27)"><tspan x="0" y="0">o</tspan></text><text class="cls-4" transform="translate(426.24 204.27)"><tspan x="0" y="0">n</tspan></text><text class="cls-4" transform="translate(430.41 204.27)"><tspan x="0" y="0">t</tspan></text><text class="cls-4" transform="translate(432.77 204.27)"><tspan x="0" y="0">h</tspan></text><text class="cls-4" transform="translate(436.94 204.27)"><tspan x="0" y="0">s—</tspan></text><text class="cls-4" transform="translate(409.29 214.02)"><tspan x="0" y="0">l</tspan></text><text class="cls-4" transform="translate(410.96 214.02)"><tspan x="0" y="0">e</tspan></text><text class="cls-4" transform="translate(414.98 214.02)"><tspan x="0" y="0">ss </tspan></text><text class="cls-4" transform="translate(424.56 214.02)"><tspan x="0" y="0">t</tspan></text><text class="cls-4" transform="translate(426.92 214.02)"><tspan x="0" y="0">h</tspan></text><text class="cls-4" transform="translate(431.09 214.02)"><tspan x="0" y="0">a</tspan></text><text class="cls-4" transform="translate(435.12 214.02)"><tspan x="0" y="0">n</tspan></text><text class="cls-4" transform="translate(439.28 214.02)"><tspan x="0" y="0"> </tspan></text><text class="cls-4" transform="translate(441.37 214.02)"><tspan x="0" y="0">1</tspan></text><text class="cls-4" transform="translate(445.54 214.02)"><tspan x="0" y="0">2</tspan></text><text class="cls-4" transform="translate(449.7 214.02)"><tspan x="0" y="0"> </tspan></text><text class="cls-4" transform="translate(451.79 214.02)"><tspan x="0" y="0">m</tspan></text><text class="cls-4" transform="translate(458.18 214.02)"><tspan x="0" y="0">o</tspan></text><text class="cls-4" transform="translate(462.48 214.02)"><tspan x="0" y="0">n</tspan></text><text class="cls-4" transform="translate(466.65 214.02)"><tspan x="0" y="0">t</tspan></text><text class="cls-4" transform="translate(469.01 214.02)"><tspan x="0" y="0">h</tspan></text><text class="cls-4" transform="translate(473.18 214.02)"><tspan x="0" y="0">s</tspan></text><text class="cls-2" transform="translate(25.49 251.5)"><tspan x="0" y="0">S</tspan></text><text class="cls-2" transform="translate(31.32 251.5)"><tspan x="0" y="0">o</tspan></text><text class="cls-2" transform="translate(36.48 251.5)"><tspan x="0" y="0">u</tspan></text><text class="cls-2" transform="translate(41.48 251.5)"><tspan x="0" y="0">r</tspan></text><text class="cls-2" transform="translate(44.31 251.5)"><tspan x="0" y="0">c</tspan></text><text class="cls-2" transform="translate(49.15 251.5)"><tspan x="0" y="0">e</tspan></text><text class="cls-2" transform="translate(53.98 251.5)"><tspan x="0" y="0">:</tspan></text><text class="cls-2" transform="translate(56.48 251.5)"><tspan x="0" y="0"> </tspan></text><text class="cls-2" transform="translate(58.98 251.5)"><tspan x="0" y="0">M</tspan></text><text class="cls-2" transform="translate(66.81 251.5)"><tspan x="0" y="0">i</tspan></text><text class="cls-2" transform="translate(68.81 251.5)"><tspan x="0" y="0">n</tspan></text><text class="cls-2" transform="translate(73.81 251.5)"><tspan x="0" y="0">i</tspan></text><text class="cls-2" transform="translate(75.81 251.5)"><tspan x="0" y="0">st</tspan></text><text class="cls-2" transform="translate(83.14 251.5)"><tspan x="0" y="0">r</tspan></text><text class="cls-2" transform="translate(86.13 251.5)"><tspan x="0" y="0">y </tspan></text><text class="cls-2" transform="translate(93.13 251.5)"><tspan x="0" y="0">o</tspan></text><text class="cls-2" transform="translate(98.3 251.5)"><tspan x="0" y="0">f</tspan></text><text class="cls-2" transform="translate(100.96 251.5)"><tspan x="0" y="0"> </tspan></text><text class="cls-2" transform="translate(103.46 251.5)"><tspan x="0" y="0">J</tspan></text><text class="cls-2" transform="translate(108.13 251.5)"><tspan x="0" y="0">u</tspan></text><text class="cls-2" transform="translate(113.13 251.5)"><tspan x="0" y="0">st</tspan></text><text class="cls-2" transform="translate(120.46 251.5)"><tspan x="0" y="0">i</tspan></text><text class="cls-2" transform="translate(122.46 251.5)"><tspan x="0" y="0">c</tspan></text><text class="cls-2" transform="translate(127.29 251.5)"><tspan x="0" y="0">e</tspan></text><text class="cls-2" transform="translate(132.12 251.5)"><tspan x="0" y="0">,</tspan></text><text class="cls-2" transform="translate(134.62 251.5)"><tspan x="0" y="0"> </tspan></text><text class="cls-2" transform="translate(137.12 251.5)"><tspan x="0" y="0">C</tspan></text><text class="cls-2" transform="translate(143.62 251.5)"><tspan x="0" y="0">r</tspan></text><text class="cls-2" transform="translate(146.61 251.5)"><tspan x="0" y="0">i</tspan></text><text class="cls-2" transform="translate(148.61 251.5)"><tspan x="0" y="0">m</tspan></text><text class="cls-2" transform="translate(156.28 251.5)"><tspan x="0" y="0">i</tspan></text><text class="cls-2" transform="translate(158.28 251.5)"><tspan x="0" y="0">n</tspan></text><text class="cls-2" transform="translate(163.28 251.5)"><tspan x="0" y="0">a</tspan></text><text class="cls-2" transform="translate(168.11 251.5)"><tspan x="0" y="0">l</tspan></text><text class="cls-2" transform="translate(170.11 251.5)"><tspan x="0" y="0"> </tspan></text><text class="cls-2" transform="translate(172.61 251.5)"><tspan x="0" y="0">j</tspan></text><text class="cls-2" transform="translate(174.6 251.5)"><tspan x="0" y="0">u</tspan></text><text class="cls-2" transform="translate(179.61 251.5)"><tspan x="0" y="0">st</tspan></text><text class="cls-2" transform="translate(186.94 251.5)"><tspan x="0" y="0">i</tspan></text><text class="cls-2" transform="translate(188.93 251.5)"><tspan x="0" y="0">c</tspan></text><text class="cls-2" transform="translate(193.76 251.5)"><tspan x="0" y="0">e</tspan></text><text class="cls-2" transform="translate(198.59 251.5)"><tspan x="0" y="0"> </tspan></text><text class="cls-2" transform="translate(201.1 251.5)"><tspan x="0" y="0">st</tspan></text><text class="cls-2" transform="translate(208.43 251.5)"><tspan x="0" y="0">a</tspan></text><text class="cls-2" transform="translate(213.26 251.5)"><tspan x="0" y="0">t</tspan></text><text class="cls-2" transform="translate(216.09 251.5)"><tspan x="0" y="0">i</tspan></text><text class="cls-2" transform="translate(218.09 251.5)"><tspan x="0" y="0">st</tspan></text><text class="cls-2" transform="translate(225.42 251.5)"><tspan x="0" y="0">i</tspan></text><text class="cls-2" transform="translate(227.42 251.5)"><tspan x="0" y="0">c</tspan></text><text class="cls-2" transform="translate(232.25 251.5)"><tspan x="0" y="0">s</tspan></text><text class="cls-1" transform="translate(31.5 55.85)"><tspan x="0" y="0">W</tspan></text><text class="cls-1" transform="translate(40.62 55.85)"><tspan x="0" y="0">o</tspan></text><text class="cls-1" transform="translate(46.64 55.85)"><tspan x="0" y="0">m</tspan></text><text class="cls-1" transform="translate(55.59 55.85)"><tspan x="0" y="0">e</tspan></text><text class="cls-1" transform="translate(61.23 55.85)"><tspan x="0" y="0">n</tspan></text><text class="cls-1" transform="translate(67.06 55.85)"><tspan x="0" y="0"> </tspan></text><text class="cls-1" transform="translate(69.98 55.85)"><tspan x="0" y="0">se</tspan></text><text class="cls-1" transform="translate(80.86 55.85)"><tspan x="0" y="0">n</tspan></text><text class="cls-1" transform="translate(86.7 55.85)"><tspan x="0" y="0">t</tspan></text><text class="cls-1" transform="translate(90 55.85)"><tspan x="0" y="0">e</tspan></text><text class="cls-1" transform="translate(95.64 55.85)"><tspan x="0" y="0">n</tspan></text><text class="cls-1" transform="translate(101.47 55.85)"><tspan x="0" y="0">c</tspan></text><text class="cls-1" transform="translate(107.11 55.85)"><tspan x="0" y="0">e</tspan></text><text class="cls-1" transform="translate(112.75 55.85)"><tspan x="0" y="0">d</tspan></text><text class="cls-1" transform="translate(118.97 55.85)"><tspan x="0" y="0"> </tspan></text><text class="cls-1" transform="translate(121.89 55.85)"><tspan x="0" y="0">t</tspan></text><text class="cls-1" transform="translate(125.19 55.85)"><tspan x="0" y="0">o</tspan></text><text class="cls-1" transform="translate(131.22 55.85)"><tspan x="0" y="0"> </tspan></text><text class="cls-1" transform="translate(134.13 55.85)"><tspan x="0" y="0">c</tspan></text><text class="cls-1" transform="translate(139.77 55.85)"><tspan x="0" y="0">u</tspan></text><text class="cls-1" transform="translate(145.6 55.85)"><tspan x="0" y="0">st</tspan></text><text class="cls-1" transform="translate(154.16 55.85)"><tspan x="0" y="0">o</tspan></text><text class="cls-1" transform="translate(160.18 55.85)"><tspan x="0" y="0">d</tspan></text><text class="cls-1" transform="translate(166.4 55.85)"><tspan x="0" y="0">y</tspan></text></g></svg>